<svg width="118" height="32" viewBox="0 0 118 32" xmlns="http://www.w3.org/2000/svg" xmlns:xlink="http://www.w3.org/1999/xlink"><title>1DFE00C2-0D77-492B-9D65-33311AFD7AC2</title><defs><path id="a" d="M25.6 31.973H.028V0H25.6v31.973z"/><path id="c" d="M25.6 31.973H.028V0H25.6v31.973z"/><path id="e" d="M.027.148v1.185H12.8V.148H.027z"/></defs><g fill="none" fill-rule="evenodd"><g><mask id="b" fill="#fff"><use xlink:href="#a"/></mask><path fill="#2490C3" mask="url(#b)" d="M25.6 10.667L12.8 0 0 10.667 6.4 16 0 21.333 12.8 32l12.8-10.667L19.2 16l6.4-5.333"/><path fill="#173249" mask="url(#b)" d="M12.8 21.333L6.4 16 0 21.333h12.8"/></g><path fill="#173249" d="M12.8 10.667L19.2 16l6.4-5.333H12.8"/><path fill="#81CAE0" d="M19.2 5.333L12.8 0v10.667h12.8l-6.4-5.334"/><g><mask id="d" fill="#fff"><use xlink:href="#c"/></mask><path fill="#3FABD1" mask="url(#d)" d="M12.8 21.333V32l12.8-10.667H12.8"/><path fill="#53B6D8" mask="url(#d)" d="M12.8 21.333H0L12.8 32V21.333"/><path fill="#3FABD1" mask="url(#d)" d="M12.8 10.667H0l12.8 10.666V10.667"/><path fill="#2595C7" mask="url(#d)" d="M19.2 16l-6.4-5.333v10.666h12.8L19.2 16"/><path fill="#53B6D8" mask="url(#d)" d="M12.8 0L0 10.667h12.8V0"/></g><path fill="#0E1820" d="M15.36 11.733l-.96-1.066h-1.6 12.8l-10.24 1.066M12.8 21.333l-1.422-1.185 1.422 1.185"/><g transform="translate(0 20)"><mask id="f" fill="#fff"><use xlink:href="#e"/></mask><path fill="#225162" mask="url(#f)" d="M12.8 1.333L11.378.148 12.8 1.333"/><path fill="#0E1820" mask="url(#f)" d="M11.2 1.333H0L10.24.267l.96 1.066"/></g><path fill="#0E1820" d="M19.2 16l-4.977-4.148.847-.088.29-.03L19.2 16"/><path fill="#19475D" d="M19.2 16l-6.4-5.333L19.2 16"/><path fill="#0C1214" d="M14.223 11.852L12.8 10.667h1.6l.96 1.066-.29.03-.847.09"/><path fill="#0E2029" d="M14.223 11.852L12.8 10.667l1.423 1.185"/><path fill="#0E1820" d="M10.24 20.267L6.4 16l4.978 4.148-.847.088-.29.03"/><path fill="#0C1214" d="M12.8 21.333h-1.6l-.96-1.066.29-.03.848-.09 1.422 1.186"/><path d="M46.968 6.4l-3.18 3.428v9.855c0 .766.18 1.334.54 1.702.557.58 1.595.843 3.113.79l1.524-.057v-2.402c-.106.008-.213.014-.322.017-.11.004-.212.006-.31.006-.654 0-1.045-.063-1.173-.187-.13-.124-.192-.438-.192-.94v-6.497h1.996V9.828h-1.996V6.4M41.64 15.64c-.37-.268-.792-.483-1.266-.646-.474-.162-.96-.3-1.46-.415-.48-.114-.955-.22-1.422-.32-.466-.096-.88-.204-1.24-.328-.364-.12-.657-.28-.882-.475-.225-.195-.338-.447-.338-.756 0-.258.064-.466.194-.62.128-.156.285-.273.47-.354.184-.082.39-.135.615-.158.226-.025.434-.037.627-.037.61 0 1.142.12 1.592.354.45.235.7.687.747 1.354h3.257c-.065-.78-.262-1.428-.59-1.94-.33-.51-.746-.922-1.244-1.232-.5-.307-1.065-.527-1.7-.658-.636-.13-1.29-.195-1.966-.195-.675 0-1.334.062-1.978.183-.643.12-1.222.333-1.736.635-.515.302-.93.712-1.243 1.232-.313.52-.47 1.187-.47 2 0 .554.113 1.02.338 1.402.225.383.522.7.892.95.37.254.792.458 1.267.61.474.156.96.29 1.46.404 1.22.26 2.173.52 2.857.78.684.26 1.026.65 1.026 1.17 0 .31-.072.567-.217.77-.146.203-.326.365-.544.487-.217.123-.458.212-.723.27-.266.055-.52.083-.76.083-.338 0-.663-.04-.977-.12-.314-.083-.59-.208-.832-.38-.242-.17-.438-.39-.59-.658-.154-.268-.23-.59-.23-.962h-3.256c.032.845.22 1.547.567 2.108.346.56.787 1.012 1.326 1.354.54.342 1.155.585 1.846.73.692.15 1.4.22 2.123.22.706 0 1.402-.068 2.085-.207.684-.136 1.29-.377 1.82-.72.532-.34.962-.792 1.292-1.353.33-.56.494-1.255.494-2.085 0-.585-.11-1.077-.336-1.475-.226-.398-.524-.732-.893-1M64.96 17.225c-.023 1.075-.33 1.815-.922 2.22-.592.407-1.24.61-1.94.61-.444 0-.82-.122-1.13-.367-.308-.244-.462-.64-.462-1.19 0-.616.252-1.07.76-1.363.298-.173.79-.32 1.476-.44l.73-.135c.367-.068.655-.142.864-.22.21-.08.418-.183.624-.31v1.195zm3.416 3.935c-.105-.15-.17-.436-.19-.857-.016-.556-.024-1.03-.024-1.42v-5.64c0-1.48-.525-2.487-1.574-3.02-1.05-.535-2.25-.8-3.6-.8-2.078 0-3.543.54-4.396 1.623-.536.69-.838 1.574-.906 2.65h3.102c.076-.474.228-.85.456-1.128.32-.376.865-.564 1.635-.564.685 0 1.205.096 1.56.288.354.19.53.54.53 1.042 0 .414-.23.718-.692.914-.258.112-.686.207-1.284.282l-1.102.135c-1.25.158-2.196.42-2.84.79-1.173.676-1.76 1.77-1.76 3.28 0 1.166.364 2.066 1.094 2.7.73.636 1.654.954 2.773.954.876 0 1.663-.2 2.36-.6.58-.337 1.095-.746 1.54-1.228.024.278.053.527.092.744.037.218.104.452.202.7h3.496v-.474c-.21-.098-.368-.222-.474-.372zM74.33 19.735c-.075.002-.15.004-.22.004-.653 0-1.044-.063-1.17-.187-.13-.124-.193-.438-.193-.94v-6.497h1.996V9.828h-1.996V6.4l-3.04 3.428v9.855c0 .766.18 1.334.54 1.702.5.52 1.278.783 2.528.794 1.928.046 2.66-.122 2.66-.122l.03-.002c-.6-.626-.98-1.403-1.135-2.32M83.104 17.225c-.023 1.075-.33 1.815-.92 2.22-.593.407-1.24.61-1.942.61-.443 0-.82-.122-1.128-.367-.31-.244-.464-.64-.464-1.19 0-.616.253-1.07.76-1.363.298-.173.79-.32 1.477-.44l.73-.135c.367-.068.655-.142.864-.22.21-.08.42-.183.624-.31v1.195zm3.417 3.935c-.104-.15-.168-.436-.19-.857-.015-.556-.023-1.03-.023-1.42v-5.64c0-1.48-.525-2.487-1.574-3.02-1.05-.535-2.25-.8-3.6-.8-2.078 0-3.543.54-4.396 1.623-.536.69-.838 1.574-.906 2.65h3.102c.076-.474.23-.85.457-1.128.32-.376.864-.564 1.634-.564.686 0 1.206.096 1.56.288.355.19.532.54.532 1.042 0 .414-.23.718-.693.914-.258.112-.686.207-1.284.282l-1.103.135c-1.25.158-2.196.42-2.84.79-1.173.676-1.76 1.77-1.76 3.28 0 1.166.364 2.066 1.094 2.7.73.636 1.655.954 2.774.954.877 0 1.664-.2 2.36-.6.582-.337 1.096-.746 1.542-1.228.022.278.052.527.09.744.038.218.105.452.203.7h3.495v-.474c-.21-.098-.368-.222-.474-.372zM89.168 13.058c0-1.234.954-2.07 2.722-2.07 1.746 0 3.002.674 3.258 2.535h1.42c-.35-2.722-2.05-3.793-4.655-3.793-2.675 0-4.234 1.443-4.234 3.444 0 4.746 7.723 2.28 7.723 5.77 0 1.163-.953 2.234-2.978 2.234-2.094 0-3.165-.768-3.606-2.84H87.4c.116 2.28 1.744 4.096 4.583 4.096 2.84 0 4.91-1.21 4.91-3.513 0-4.63-7.725-2.582-7.725-5.862M109.3 13.058c0-1.234.956-2.07 2.724-2.07 1.745 0 3 .674 3.257 2.535h1.42c-.348-2.722-2.047-3.793-4.653-3.793-2.675 0-4.235 1.443-4.235 3.444 0 4.746 7.725 2.28 7.725 5.77 0 1.163-.953 2.234-2.978 2.234-2.095 0-3.165-.768-3.608-2.84h-1.42c.117 2.28 1.746 4.096 4.585 4.096 2.84 0 4.91-1.21 4.91-3.513 0-4.63-7.726-2.582-7.726-5.862M106.074 10.056L102.21 20.41l-3.86-10.354h-1.56l4.677 12.145.038.102-1.23 3.298h1.44l5.87-15.544h-1.51M56.965 9.467c-.962 0-1.745.25-2.345.753-.38.308-.793.844-1.297 1.674V9.76h-3.067v12.246h3.236v-5.854c0-.98.124-1.708.372-2.18.443-.838 1.312-1.258 2.604-1.258.098 0 .226.004.384.01.113.007.242.017.378.03V9.48l-.113-.007c-.04-.004-.092-.006-.152-.006M117.027 11.108c-.347 0-.608-.266-.608-.618s.26-.618.607-.618c.346 0 .607.266.607.618s-.26.618-.607.618zm0-1.383c-.43 0-.766.336-.766.765 0 .43.337.766.767.766s.765-.337.765-.766c0-.43-.336-.765-.765-.765z" fill="#FFF"/><path d="M117.084 10.456h-.17v-.2h.17c.07 0 .107.03.107.1s-.037.1-.106.1zm.15.055c.08-.033.113-.095.113-.178 0-.108-.08-.196-.208-.196h-.383v.708h.156v-.276h.156c.077 0 .106.032.117.107.008.056.005.125.025.17h.156c-.028-.04-.028-.124-.03-.168-.006-.072-.027-.146-.104-.166z" fill="#FFF"/></g></svg>