<svg xmlns="http://www.w3.org/2000/svg" viewBox="0 0 265.03 72"><defs><style>.cls-1{isolation:isolate;}.cls-2{fill:#0c9cd8;}.cls-3{fill:#003a5d;}.cls-4{fill:#80d0ee;}.cls-5{fill:#33b4e4;}.cls-6{fill:#4cbde7;}.cls-7{fill:#00a1dd;}.cls-8{opacity:0.5;mix-blend-mode:multiply;}</style></defs><g class="cls-1"><g id="Layer_1" data-name="Layer 1"><polygon class="cls-2" points="57.6 24 43.2 12 28.8 0 28.8 0 28.8 0 28.8 0 28.8 0 14.4 12 0 24 14.4 36 0 48 14.4 60 28.8 72 28.8 72 28.8 72 28.8 72 28.8 72 43.2 60 57.6 48 43.2 36 57.6 24"/><polygon class="cls-3" points="28.8 48 28.8 48 14.4 36 0 48 28.8 48 28.8 48"/><polygon class="cls-3" points="28.8 24 43.2 36 57.6 24 28.8 24 28.8 24"/><polygon class="cls-4" points="43.2 12 28.8 0 28.8 0 28.8 0 28.8 24 28.8 24 57.6 24 43.2 12"/><polygon class="cls-2" points="28.8 24 28.8 24 28.8 24 28.8 24 28.8 24"/><polygon class="cls-2" points="28.8 24 28.8 24 28.8 24 28.8 24"/><polygon class="cls-2" points="28.8 24 28.8 24 28.8 24 28.8 24 28.8 24"/><polygon class="cls-2" points="28.8 24 28.8 24 28.8 24 28.8 24"/><polygon class="cls-2" points="28.8 48 28.8 48 28.8 48 28.8 48"/><polygon class="cls-2" points="28.8 48 28.8 48 28.8 48 28.8 48"/><polygon class="cls-2" points="28.8 48 28.8 48 28.8 48 28.8 48"/><polygon class="cls-5" points="28.8 48 28.8 48 28.8 72 28.8 72 28.8 72 43.2 60 57.6 48 28.8 48"/><polygon class="cls-6" points="28.8 48 0 48 14.4 60 28.8 72 28.8 72 28.8 72 28.8 48 28.8 48"/><polygon class="cls-2" points="28.8 48 28.8 48 28.8 48 28.8 48"/><polygon class="cls-5" points="28.8 24 28.8 24 28.8 24 0 24 14.4 36 28.8 48 28.8 48 28.8 48 28.8 24 28.8 24"/><polygon class="cls-7" points="43.2 36 28.8 24 28.8 24 28.8 24 28.8 48 28.8 48 28.8 48 28.8 48 28.8 48 57.6 48 43.2 36"/><polygon class="cls-6" points="28.8 0 28.8 0 14.4 12 0 24 28.8 24 28.8 24 28.8 0 28.8 0"/><polygon class="cls-8" points="31.5 24 28.8 24 28.8 24 32 26.67 33.91 26.47 57.6 24 31.5 24"/><polygon class="cls-8" points="28.8 48 25.6 45.33 23.7 45.53 0 48 26.1 48 28.8 48 28.8 48 28.8 48"/><polygon class="cls-8" points="43.2 36 32.4 24 28.8 24 43.2 36"/><polygon class="cls-8" points="14.4 36 25.2 48 28.8 48 14.4 36"/><path class="cls-3" d="M585.16,374.4,578,382.11v22.18a5.3,5.3,0,0,0,1.21,3.83c1.26,1.3,3.59,1.89,7,1.77l3.42-.12v-5.41l-.72,0h-.7q-2.21,0-2.64-.42c-.29-.27-.43-1-.43-2.11V387.26h4.49v-5.15h-4.49Z" transform="translate(-479.48 -360)"/><path class="cls-3" d="M573.18,395.19a10.92,10.92,0,0,0-2.85-1.45,31.94,31.94,0,0,0-3.29-.94c-1.08-.25-2.15-.49-3.2-.71a25.22,25.22,0,0,1-2.79-.74,5.79,5.79,0,0,1-2-1.07,2.14,2.14,0,0,1-.76-1.7,2.11,2.11,0,0,1,.43-1.4,2.89,2.89,0,0,1,1.06-.8,4.58,4.58,0,0,1,1.38-.35,12.13,12.13,0,0,1,1.41-.09,7.67,7.67,0,0,1,3.59.8,3.42,3.42,0,0,1,1.68,3.05h7.32a9.35,9.35,0,0,0-1.32-4.37,9,9,0,0,0-2.8-2.77,11.67,11.67,0,0,0-3.83-1.48,22.16,22.16,0,0,0-4.42-.44,24.23,24.23,0,0,0-4.45.41,12,12,0,0,0-3.91,1.43,7.87,7.87,0,0,0-2.79,2.77,8.57,8.57,0,0,0-1.06,4.5,6,6,0,0,0,.76,3.15,6.63,6.63,0,0,0,2,2.14,11.09,11.09,0,0,0,2.85,1.38c1.06.35,2.16.65,3.28.9a45.64,45.64,0,0,1,6.43,1.76c1.54.58,2.31,1.46,2.31,2.63a2.86,2.86,0,0,1-.49,1.73,3.67,3.67,0,0,1-1.22,1.1,5.66,5.66,0,0,1-1.63.6,8.06,8.06,0,0,1-1.71.19,8.9,8.9,0,0,1-2.2-.27,5.71,5.71,0,0,1-1.87-.85,4.63,4.63,0,0,1-1.33-1.48,4.38,4.38,0,0,1-.51-2.17H550a9.72,9.72,0,0,0,1.27,4.75,9.44,9.44,0,0,0,3,3,12.53,12.53,0,0,0,4.15,1.65,23,23,0,0,0,4.78.49,23.68,23.68,0,0,0,4.69-.46,12,12,0,0,0,4.1-1.62,9,9,0,0,0,2.9-3.05,9.12,9.12,0,0,0,1.11-4.69,6.63,6.63,0,0,0-.76-3.32A6.86,6.86,0,0,0,573.18,395.19Z" transform="translate(-479.48 -360)"/><path class="cls-3" d="M633.33,407.61a4,4,0,0,1-.43-1.93c0-1.25,0-2.32,0-3.2V389.8q0-5-3.54-6.8a17.67,17.67,0,0,0-8.11-1.8q-7,0-9.88,3.65a10.56,10.56,0,0,0-2,6h7a5.23,5.23,0,0,1,1-2.53A4.6,4.6,0,0,1,621,387a7.43,7.43,0,0,1,3.51.65,2.42,2.42,0,0,1,1.2,2.34,2.18,2.18,0,0,1-1.56,2.06,11.67,11.67,0,0,1-2.89.63l-2.48.31a17.59,17.59,0,0,0-6.39,1.77c-2.64,1.52-4,4-4,7.38a7.63,7.63,0,0,0,2.46,6.08,9.15,9.15,0,0,0,6.24,2.15A10.43,10.43,0,0,0,622.4,409a14.86,14.86,0,0,0,3.47-2.76c0,.62.12,1.18.2,1.67a8.49,8.49,0,0,0,.46,1.57h7.87v-1.06A2.58,2.58,0,0,1,633.33,407.61Zm-7.69-8.85c0,2.41-.74,4.08-2.07,5a7.52,7.52,0,0,1-4.37,1.37,4,4,0,0,1-2.54-.82,3.22,3.22,0,0,1-1-2.68,3.31,3.31,0,0,1,1.71-3.07,10.75,10.75,0,0,1,3.32-1l1.65-.3a11.34,11.34,0,0,0,1.94-.5,7.89,7.89,0,0,0,1.4-.69Z" transform="translate(-479.48 -360)"/><path class="cls-3" d="M646.73,404.4h-.5c-1.47,0-2.35-.14-2.63-.42a3.22,3.22,0,0,1-.44-2.11V387.26h4.5v-5.15h-4.5V374.4l-6.84,7.71v22.18a5.3,5.3,0,0,0,1.22,3.83c1.12,1.17,2.87,1.76,5.69,1.78h0a28.1,28.1,0,0,0,6-.28h.06A9.72,9.72,0,0,1,646.73,404.4Z" transform="translate(-479.48 -360)"/><path class="cls-3" d="M674.16,407.61a4,4,0,0,1-.43-1.93c0-1.25-.05-2.32-.05-3.2V389.8c0-3.33-1.19-5.6-3.55-6.8a17.63,17.63,0,0,0-8.1-1.8q-7,0-9.89,3.65a10.71,10.71,0,0,0-2,6h7a5.23,5.23,0,0,1,1-2.53,4.6,4.6,0,0,1,3.68-1.27,7.46,7.46,0,0,1,3.51.65,2.41,2.41,0,0,1,1.19,2.34,2.18,2.18,0,0,1-1.55,2.06,11.79,11.79,0,0,1-2.89.63l-2.48.31a17.59,17.59,0,0,0-6.39,1.77c-2.64,1.52-4,4-4,7.38a7.63,7.63,0,0,0,2.46,6.08,9.15,9.15,0,0,0,6.24,2.15,10.48,10.48,0,0,0,5.31-1.35,15.07,15.07,0,0,0,3.47-2.76c0,.62.12,1.18.2,1.67a8.49,8.49,0,0,0,.46,1.57h7.86v-1.06A2.54,2.54,0,0,1,674.16,407.61Zm-7.69-8.85c-.05,2.41-.74,4.08-2.07,5a7.54,7.54,0,0,1-4.37,1.37,4,4,0,0,1-2.54-.82,3.19,3.19,0,0,1-1-2.68,3.31,3.31,0,0,1,1.71-3.07,10.75,10.75,0,0,1,3.32-1l1.65-.3a11.34,11.34,0,0,0,1.94-.5,7.89,7.89,0,0,0,1.4-.69Z" transform="translate(-479.48 -360)"/><path class="cls-3" d="M680.11,389.38c0-2.78,2.15-4.66,6.13-4.66s6.75,1.52,7.33,5.71h3.19c-.79-6.13-4.61-8.54-10.47-8.54-6,0-9.53,3.25-9.53,7.75,0,10.68,17.38,5.13,17.38,13,0,2.62-2.14,5-6.7,5-4.71,0-7.12-1.73-8.11-6.39h-3.2c.26,5.13,3.93,9.22,10.32,9.22s11-2.73,11-7.91C697.49,392.15,680.11,396.76,680.11,389.38Z" transform="translate(-479.48 -360)"/><path class="cls-3" d="M725.41,389.38c0-2.78,2.15-4.66,6.13-4.66s6.75,1.52,7.33,5.71h3.19c-.78-6.13-4.61-8.54-10.47-8.54-6,0-9.53,3.25-9.53,7.75,0,10.68,17.38,5.13,17.38,13,0,2.62-2.14,5-6.7,5-4.71,0-7.12-1.73-8.11-6.39h-3.2c.27,5.13,3.93,9.22,10.32,9.22s11-2.73,11-7.91C742.79,392.15,725.41,396.76,725.41,389.38Z" transform="translate(-479.48 -360)"/><polygon class="cls-3" points="238.67 22.63 229.97 45.92 221.28 22.63 217.78 22.63 228.3 49.95 228.39 50.18 225.62 57.6 228.86 57.6 242.07 22.63 238.67 22.63"/><path class="cls-3" d="M607.66,381.3a8,8,0,0,0-5.28,1.69,14.91,14.91,0,0,0-2.92,3.77V382h-6.9v27.55h7.28V396.34a10.92,10.92,0,0,1,.84-4.9q1.5-2.83,5.86-2.83l.86,0c.26,0,.55,0,.85.07v-7.37l-.25,0Z" transform="translate(-479.48 -360)"/><path class="cls-3" d="M742.79,381.88a1.72,1.72,0,1,0,1.73,1.72A1.71,1.71,0,0,0,742.79,381.88Zm0,3.11a1.39,1.39,0,0,1,0-2.78,1.39,1.39,0,0,1,0,2.78Z" transform="translate(-479.48 -360)"/><path class="cls-3" d="M743.26,383.65h0a.4.4,0,0,0,.25-.4.43.43,0,0,0-.46-.44h-.86v1.59h.35v-.62h.35c.18,0,.24.07.26.24a2,2,0,0,0,.06.38h.35a1,1,0,0,1-.07-.38C743.48,383.86,743.43,383.69,743.26,383.65Zm-.34-.12h-.38v-.45h.38c.16,0,.24.07.24.22S743.08,383.53,742.92,383.53Z" transform="translate(-479.48 -360)"/></g></g></svg>